<?xml version="1.0" encoding="utf-8" standalone="no"?>
<!DOCTYPE svg PUBLIC "-//W3C//DTD SVG 1.1//EN"
  "http://www.w3.org/Graphics/SVG/1.1/DTD/svg11.dtd">
<svg xmlns:xlink="http://www.w3.org/1999/xlink" width="295.296346pt" height="289.035572pt" viewBox="0 0 295.296346 289.035572" xmlns="http://www.w3.org/2000/svg" version="1.1">
 <metadata>
  <rdf:RDF xmlns:dc="http://purl.org/dc/elements/1.1/" xmlns:cc="http://creativecommons.org/ns#" xmlns:rdf="http://www.w3.org/1999/02/22-rdf-syntax-ns#">
   <cc:Work>
    <dc:type rdf:resource="http://purl.org/dc/dcmitype/StillImage"/>
    <dc:date>2023-10-09T18:35:12.613444</dc:date>
    <dc:format>image/svg+xml</dc:format>
    <dc:creator>
     <cc:Agent>
      <dc:title>Matplotlib v3.6.3, https://matplotlib.org/</dc:title>
     </cc:Agent>
    </dc:creator>
   </cc:Work>
  </rdf:RDF>
 </metadata>
 <defs>
  <style type="text/css">*{stroke-linejoin: round; stroke-linecap: butt}</style>
 </defs>
 <g id="figure_1">
  <g id="patch_1">
   <path d="M 0 289.035572 
L 295.296346 289.035572 
L 295.296346 0 
L 0 0 
z
" style="fill: #ffffff"/>
  </g>
  <g id="patch_2">
   <path d="M 7.2 273.312 
L 273.312 273.312 
L 273.312 7.2 
L 7.2 7.2 
z
" style="fill: #ffffff"/>
  </g>
  <g id="pane3d_1">
   <g id="patch_3">
    <path d="M 27.293291 207.697309 
L 115.172164 134.035495 
L 113.950564 27.801991 
L 21.866234 95.000941 
" style="fill: #f2f2f2; opacity: 0.5; stroke: #f2f2f2; stroke-linejoin: miter"/>
   </g>
  </g>
  <g id="pane3d_2">
   <g id="patch_4">
    <path d="M 115.172164 134.035495 
L 256.186401 175.022766 
L 261.218702 65.130171 
L 113.950564 27.801991 
" style="fill: #e6e6e6; opacity: 0.5; stroke: #e6e6e6; stroke-linejoin: miter"/>
   </g>
  </g>
  <g id="pane3d_3">
   <g id="patch_5">
    <path d="M 27.293291 207.697309 
L 176.775269 256.518123 
L 256.186401 175.022766 
L 115.172164 134.035495 
" style="fill: #ececec; opacity: 0.5; stroke: #ececec; stroke-linejoin: miter"/>
   </g>
  </g>
  <g id="axis3d_1">
   <g id="line2d_1">
    <path d="M 27.293291 207.697309 
L 176.775269 256.518123 
" style="fill: none; stroke: #000000; stroke-width: 0.8; stroke-linecap: square"/>
   </g>
   <g id="text_1">
    <!-- x -->
    <g transform="translate(80.813053 269.49559) scale(0.1 -0.1)">
     <defs>
      <path id="DejaVuSans-78" d="M 3513 3500 
L 2247 1797 
L 3578 0 
L 2900 0 
L 1881 1375 
L 863 0 
L 184 0 
L 1544 1831 
L 300 3500 
L 978 3500 
L 1906 2253 
L 2834 3500 
L 3513 3500 
z
" transform="scale(0.015625)"/>
     </defs>
     <use xlink:href="#DejaVuSans-78"/>
    </g>
   </g>
   <g id="Line3DCollection_1">
    <path d="M 30.132265 208.624518 
L 117.861942 134.817307 
L 116.753821 28.512535 
" style="fill: none; stroke: #b0b0b0; stroke-width: 0.8"/>
    <path d="M 57.686497 217.62373 
L 143.94466 142.398523 
L 143.948643 35.40563 
" style="fill: none; stroke: #b0b0b0; stroke-width: 0.8"/>
    <path d="M 85.795806 226.80423 
L 170.509043 150.119741 
L 171.667493 42.43155 
" style="fill: none; stroke: #b0b0b0; stroke-width: 0.8"/>
    <path d="M 114.477133 236.171552 
L 197.568559 157.984874 
L 199.925665 49.594173 
" style="fill: none; stroke: #b0b0b0; stroke-width: 0.8"/>
    <path d="M 143.74812 245.731456 
L 225.13718 165.997984 
L 228.739053 56.897527 
" style="fill: none; stroke: #b0b0b0; stroke-width: 0.8"/>
    <path d="M 173.627139 255.489943 
L 253.229412 174.163286 
L 258.124183 64.345801 
" style="fill: none; stroke: #b0b0b0; stroke-width: 0.8"/>
   </g>
   <g id="xtick_1">
    <g id="line2d_2">
     <path d="M 30.89607 207.981926 
L 28.601383 209.912453 
" style="fill: none; stroke: #000000; stroke-width: 0.8; stroke-linecap: square"/>
    </g>
    <g id="text_2">
     <!-- 0.0 -->
     <g transform="translate(14.645562 231.890754) scale(0.1 -0.1)">
      <defs>
       <path id="DejaVuSans-30" d="M 2034 4250 
Q 1547 4250 1301 3770 
Q 1056 3291 1056 2328 
Q 1056 1369 1301 889 
Q 1547 409 2034 409 
Q 2525 409 2770 889 
Q 3016 1369 3016 2328 
Q 3016 3291 2770 3770 
Q 2525 4250 2034 4250 
z
M 2034 4750 
Q 2819 4750 3233 4129 
Q 3647 3509 3647 2328 
Q 3647 1150 3233 529 
Q 2819 -91 2034 -91 
Q 1250 -91 836 529 
Q 422 1150 422 2328 
Q 422 3509 836 4129 
Q 1250 4750 2034 4750 
z
" transform="scale(0.015625)"/>
       <path id="DejaVuSans-2e" d="M 684 794 
L 1344 794 
L 1344 0 
L 684 0 
L 684 794 
z
" transform="scale(0.015625)"/>
      </defs>
      <use xlink:href="#DejaVuSans-30"/>
      <use xlink:href="#DejaVuSans-2e" x="63.623047"/>
      <use xlink:href="#DejaVuSans-30" x="95.410156"/>
     </g>
    </g>
   </g>
   <g id="xtick_2">
    <g id="line2d_3">
     <path d="M 58.438099 216.968263 
L 56.180045 218.937498 
" style="fill: none; stroke: #000000; stroke-width: 0.8; stroke-linecap: square"/>
    </g>
    <g id="text_3">
     <!-- 0.2 -->
     <g transform="translate(42.227591 241.080502) scale(0.1 -0.1)">
      <defs>
       <path id="DejaVuSans-32" d="M 1228 531 
L 3431 531 
L 3431 0 
L 469 0 
L 469 531 
Q 828 903 1448 1529 
Q 2069 2156 2228 2338 
Q 2531 2678 2651 2914 
Q 2772 3150 2772 3378 
Q 2772 3750 2511 3984 
Q 2250 4219 1831 4219 
Q 1534 4219 1204 4116 
Q 875 4013 500 3803 
L 500 4441 
Q 881 4594 1212 4672 
Q 1544 4750 1819 4750 
Q 2544 4750 2975 4387 
Q 3406 4025 3406 3419 
Q 3406 3131 3298 2873 
Q 3191 2616 2906 2266 
Q 2828 2175 2409 1742 
Q 1991 1309 1228 531 
z
" transform="scale(0.015625)"/>
      </defs>
      <use xlink:href="#DejaVuSans-30"/>
      <use xlink:href="#DejaVuSans-2e" x="63.623047"/>
      <use xlink:href="#DejaVuSans-32" x="95.410156"/>
     </g>
    </g>
   </g>
   <g id="xtick_3">
    <g id="line2d_4">
     <path d="M 86.534554 226.135497 
L 84.315083 228.144617 
" style="fill: none; stroke: #000000; stroke-width: 0.8; stroke-linecap: square"/>
    </g>
    <g id="text_4">
     <!-- 0.4 -->
     <g transform="translate(70.367359 250.456076) scale(0.1 -0.1)">
      <defs>
       <path id="DejaVuSans-34" d="M 2419 4116 
L 825 1625 
L 2419 1625 
L 2419 4116 
z
M 2253 4666 
L 3047 4666 
L 3047 1625 
L 3713 1625 
L 3713 1100 
L 3047 1100 
L 3047 0 
L 2419 0 
L 2419 1100 
L 313 1100 
L 313 1709 
L 2253 4666 
z
" transform="scale(0.015625)"/>
      </defs>
      <use xlink:href="#DejaVuSans-30"/>
      <use xlink:href="#DejaVuSans-2e" x="63.623047"/>
      <use xlink:href="#DejaVuSans-34" x="95.410156"/>
     </g>
    </g>
   </g>
   <g id="xtick_4">
    <g id="line2d_5">
     <path d="M 115.202347 235.489146 
L 113.023506 237.539374 
" style="fill: none; stroke: #000000; stroke-width: 0.8; stroke-linecap: square"/>
    </g>
    <g id="text_5">
     <!-- 0.6 -->
     <g transform="translate(99.081954 260.02317) scale(0.1 -0.1)">
      <defs>
       <path id="DejaVuSans-36" d="M 2113 2584 
Q 1688 2584 1439 2293 
Q 1191 2003 1191 1497 
Q 1191 994 1439 701 
Q 1688 409 2113 409 
Q 2538 409 2786 701 
Q 3034 994 3034 1497 
Q 3034 2003 2786 2293 
Q 2538 2584 2113 2584 
z
M 3366 4563 
L 3366 3988 
Q 3128 4100 2886 4159 
Q 2644 4219 2406 4219 
Q 1781 4219 1451 3797 
Q 1122 3375 1075 2522 
Q 1259 2794 1537 2939 
Q 1816 3084 2150 3084 
Q 2853 3084 3261 2657 
Q 3669 2231 3669 1497 
Q 3669 778 3244 343 
Q 2819 -91 2113 -91 
Q 1303 -91 875 529 
Q 447 1150 447 2328 
Q 447 3434 972 4092 
Q 1497 4750 2381 4750 
Q 2619 4750 2861 4703 
Q 3103 4656 3366 4563 
z
" transform="scale(0.015625)"/>
      </defs>
      <use xlink:href="#DejaVuSans-30"/>
      <use xlink:href="#DejaVuSans-2e" x="63.623047"/>
      <use xlink:href="#DejaVuSans-36" x="95.410156"/>
     </g>
    </g>
   </g>
   <g id="xtick_5">
    <g id="line2d_6">
     <path d="M 144.459084 245.034954 
L 142.323022 247.127565 
" style="fill: none; stroke: #000000; stroke-width: 0.8; stroke-linecap: square"/>
    </g>
    <g id="text_6">
     <!-- 0.8 -->
     <g transform="translate(128.389173 269.787714) scale(0.1 -0.1)">
      <defs>
       <path id="DejaVuSans-38" d="M 2034 2216 
Q 1584 2216 1326 1975 
Q 1069 1734 1069 1313 
Q 1069 891 1326 650 
Q 1584 409 2034 409 
Q 2484 409 2743 651 
Q 3003 894 3003 1313 
Q 3003 1734 2745 1975 
Q 2488 2216 2034 2216 
z
M 1403 2484 
Q 997 2584 770 2862 
Q 544 3141 544 3541 
Q 544 4100 942 4425 
Q 1341 4750 2034 4750 
Q 2731 4750 3128 4425 
Q 3525 4100 3525 3541 
Q 3525 3141 3298 2862 
Q 3072 2584 2669 2484 
Q 3125 2378 3379 2068 
Q 3634 1759 3634 1313 
Q 3634 634 3220 271 
Q 2806 -91 2034 -91 
Q 1263 -91 848 271 
Q 434 634 434 1313 
Q 434 1759 690 2068 
Q 947 2378 1403 2484 
z
M 1172 3481 
Q 1172 3119 1398 2916 
Q 1625 2713 2034 2713 
Q 2441 2713 2670 2916 
Q 2900 3119 2900 3481 
Q 2900 3844 2670 4047 
Q 2441 4250 2034 4250 
Q 1625 4250 1398 4047 
Q 1172 3844 1172 3481 
z
" transform="scale(0.015625)"/>
      </defs>
      <use xlink:href="#DejaVuSans-30"/>
      <use xlink:href="#DejaVuSans-2e" x="63.623047"/>
      <use xlink:href="#DejaVuSans-38" x="95.410156"/>
     </g>
    </g>
   </g>
   <g id="xtick_6">
    <g id="line2d_7">
     <path d="M 174.323103 254.778904 
L 172.232077 256.915226 
" style="fill: none; stroke: #000000; stroke-width: 0.8; stroke-linecap: square"/>
    </g>
    <g id="text_7">
     <!-- 1.0 -->
     <g transform="translate(158.307552 279.755884) scale(0.1 -0.1)">
      <defs>
       <path id="DejaVuSans-31" d="M 794 531 
L 1825 531 
L 1825 4091 
L 703 3866 
L 703 4441 
L 1819 4666 
L 2450 4666 
L 2450 531 
L 3481 531 
L 3481 0 
L 794 0 
L 794 531 
z
" transform="scale(0.015625)"/>
      </defs>
      <use xlink:href="#DejaVuSans-31"/>
      <use xlink:href="#DejaVuSans-2e" x="63.623047"/>
      <use xlink:href="#DejaVuSans-30" x="95.410156"/>
     </g>
    </g>
   </g>
  </g>
  <g id="axis3d_2">
   <g id="line2d_8">
    <path d="M 256.186401 175.022766 
L 176.775269 256.518123 
" style="fill: none; stroke: #000000; stroke-width: 0.8; stroke-linecap: square"/>
   </g>
   <g id="text_8">
    <!-- y -->
    <g transform="translate(242.269407 244.716697) scale(0.1 -0.1)">
     <defs>
      <path id="DejaVuSans-79" d="M 2059 -325 
Q 1816 -950 1584 -1140 
Q 1353 -1331 966 -1331 
L 506 -1331 
L 506 -850 
L 844 -850 
Q 1081 -850 1212 -737 
Q 1344 -625 1503 -206 
L 1606 56 
L 191 3500 
L 800 3500 
L 1894 763 
L 2988 3500 
L 3597 3500 
L 2059 -325 
z
" transform="scale(0.015625)"/>
     </defs>
     <use xlink:href="#DejaVuSans-79"/>
    </g>
   </g>
   <g id="Line3DCollection_2">
    <path d="M 23.875678 93.53454 
L 29.203855 206.095836 
L 178.509209 254.738673 
" style="fill: none; stroke: #b0b0b0; stroke-width: 0.8"/>
    <path d="M 42.792887 79.729622 
L 47.205693 191.006339 
L 194.830489 237.989026 
" style="fill: none; stroke: #b0b0b0; stroke-width: 0.8"/>
    <path d="M 61.058169 66.400451 
L 64.613793 176.414525 
L 210.585371 221.820641 
" style="fill: none; stroke: #b0b0b0; stroke-width: 0.8"/>
    <path d="M 78.704654 53.522851 
L 81.457051 162.296171 
L 225.802836 206.203778 
" style="fill: none; stroke: #b0b0b0; stroke-width: 0.8"/>
    <path d="M 95.763263 41.074255 
L 97.762521 148.628603 
L 240.509921 191.110691 
" style="fill: none; stroke: #b0b0b0; stroke-width: 0.8"/>
    <path d="M 112.262892 29.033577 
L 113.555554 135.39057 
L 254.731879 176.515463 
" style="fill: none; stroke: #b0b0b0; stroke-width: 0.8"/>
   </g>
   <g id="xtick_7">
    <g id="line2d_9">
     <path d="M 177.250748 254.328674 
L 181.029399 255.559737 
" style="fill: none; stroke: #000000; stroke-width: 0.8; stroke-linecap: square"/>
    </g>
    <g id="text_9">
     <!-- 0.0 -->
     <g transform="translate(183.488673 275.817595) scale(0.1 -0.1)">
      <use xlink:href="#DejaVuSans-30"/>
      <use xlink:href="#DejaVuSans-2e" x="63.623047"/>
      <use xlink:href="#DejaVuSans-30" x="95.410156"/>
     </g>
    </g>
   </g>
   <g id="xtick_8">
    <g id="line2d_10">
     <path d="M 193.58731 237.593375 
L 197.320017 238.781337 
" style="fill: none; stroke: #000000; stroke-width: 0.8; stroke-linecap: square"/>
    </g>
    <g id="text_10">
     <!-- 0.2 -->
     <g transform="translate(199.591122 258.819877) scale(0.1 -0.1)">
      <use xlink:href="#DejaVuSans-30"/>
      <use xlink:href="#DejaVuSans-2e" x="63.623047"/>
      <use xlink:href="#DejaVuSans-32" x="95.410156"/>
     </g>
    </g>
   </g>
   <g id="xtick_9">
    <g id="line2d_11">
     <path d="M 209.35718 221.438599 
L 213.04483 222.585684 
" style="fill: none; stroke: #000000; stroke-width: 0.8; stroke-linecap: square"/>
    </g>
    <g id="text_11">
     <!-- 0.4 -->
     <g transform="translate(215.134443 242.412374) scale(0.1 -0.1)">
      <use xlink:href="#DejaVuSans-30"/>
      <use xlink:href="#DejaVuSans-2e" x="63.623047"/>
      <use xlink:href="#DejaVuSans-34" x="95.410156"/>
     </g>
    </g>
   </g>
   <g id="xtick_10">
    <g id="line2d_12">
     <path d="M 224.589343 205.834654 
L 228.23281 206.942936 
" style="fill: none; stroke: #000000; stroke-width: 0.8; stroke-linecap: square"/>
    </g>
    <g id="text_12">
     <!-- 0.6 -->
     <g transform="translate(230.147262 226.564868) scale(0.1 -0.1)">
      <use xlink:href="#DejaVuSans-30"/>
      <use xlink:href="#DejaVuSans-2e" x="63.623047"/>
      <use xlink:href="#DejaVuSans-36" x="95.410156"/>
     </g>
    </g>
   </g>
   <g id="xtick_11">
    <g id="line2d_13">
     <path d="M 239.310839 190.75384 
L 242.910989 191.825256 
" style="fill: none; stroke: #000000; stroke-width: 0.8; stroke-linecap: square"/>
    </g>
    <g id="text_13">
     <!-- 0.8 -->
     <g transform="translate(244.656282 211.249172) scale(0.1 -0.1)">
      <use xlink:href="#DejaVuSans-30"/>
      <use xlink:href="#DejaVuSans-2e" x="63.623047"/>
      <use xlink:href="#DejaVuSans-38" x="95.410156"/>
     </g>
    </g>
   </g>
   <g id="xtick_12">
    <g id="line2d_14">
     <path d="M 253.546926 176.170284 
L 257.104609 177.206643 
" style="fill: none; stroke: #000000; stroke-width: 0.8; stroke-linecap: square"/>
    </g>
    <g id="text_14">
     <!-- 1.0 -->
     <g transform="translate(258.686445 196.438956) scale(0.1 -0.1)">
      <use xlink:href="#DejaVuSans-31"/>
      <use xlink:href="#DejaVuSans-2e" x="63.623047"/>
      <use xlink:href="#DejaVuSans-30" x="95.410156"/>
     </g>
    </g>
   </g>
  </g>
  <g id="axis3d_3">
   <g id="line2d_15">
    <path d="M 256.186401 175.022766 
L 261.218702 65.130171 
" style="fill: none; stroke: #000000; stroke-width: 0.8; stroke-linecap: square"/>
   </g>
   <g id="text_15">
    <!-- z -->
    <g transform="translate(296.399011 118.630279) scale(0.1 -0.1)">
     <defs>
      <path id="DejaVuSans-7a" d="M 353 3500 
L 3084 3500 
L 3084 2975 
L 922 459 
L 3084 459 
L 3084 0 
L 275 0 
L 275 525 
L 2438 3041 
L 353 3041 
L 353 3500 
z
" transform="scale(0.015625)"/>
     </defs>
     <use xlink:href="#DejaVuSans-7a"/>
    </g>
   </g>
   <g id="Line3DCollection_3">
    <path d="M 256.282814 172.917346 
L 115.148711 131.99596 
L 27.189487 205.541739 
" style="fill: none; stroke: #b0b0b0; stroke-width: 0.8"/>
    <path d="M 257.216872 152.519898 
L 114.921595 112.245362 
L 26.183474 184.651235 
" style="fill: none; stroke: #b0b0b0; stroke-width: 0.8"/>
    <path d="M 258.166581 131.780692 
L 114.690856 92.179717 
L 25.15996 163.397309 
" style="fill: none; stroke: #b0b0b0; stroke-width: 0.8"/>
    <path d="M 259.132336 110.691068 
L 114.456407 71.791427 
L 24.118485 141.770393 
" style="fill: none; stroke: #b0b0b0; stroke-width: 0.8"/>
    <path d="M 260.114548 89.242067 
L 114.218158 51.072647 
L 23.05857 119.760582 
" style="fill: none; stroke: #b0b0b0; stroke-width: 0.8"/>
    <path d="M 261.113641 67.424426 
L 113.976015 30.015274 
L 21.979723 97.357618 
" style="fill: none; stroke: #b0b0b0; stroke-width: 0.8"/>
   </g>
   <g id="xtick_13">
    <g id="line2d_16">
     <path d="M 255.098262 172.573889 
L 258.654736 173.605077 
" style="fill: none; stroke: #000000; stroke-width: 0.8; stroke-linecap: square"/>
    </g>
    <g id="text_16">
     <!-- 0.0 -->
     <g transform="translate(266.595217 177.914875) scale(0.1 -0.1)">
      <use xlink:href="#DejaVuSans-30"/>
      <use xlink:href="#DejaVuSans-2e" x="63.623047"/>
      <use xlink:href="#DejaVuSans-30" x="95.410156"/>
     </g>
    </g>
   </g>
   <g id="xtick_14">
    <g id="line2d_17">
     <path d="M 256.02211 152.181738 
L 259.609263 153.197028 
" style="fill: none; stroke: #000000; stroke-width: 0.8; stroke-linecap: square"/>
    </g>
    <g id="text_17">
     <!-- 0.2 -->
     <g transform="translate(267.677724 157.557599) scale(0.1 -0.1)">
      <use xlink:href="#DejaVuSans-30"/>
      <use xlink:href="#DejaVuSans-2e" x="63.623047"/>
      <use xlink:href="#DejaVuSans-32" x="95.410156"/>
     </g>
    </g>
   </g>
   <g id="xtick_15">
    <g id="line2d_18">
     <path d="M 256.961431 131.448057 
L 260.579796 132.446768 
" style="fill: none; stroke: #000000; stroke-width: 0.8; stroke-linecap: square"/>
    </g>
    <g id="text_18">
     <!-- 0.4 -->
     <g transform="translate(268.778314 136.860281) scale(0.1 -0.1)">
      <use xlink:href="#DejaVuSans-30"/>
      <use xlink:href="#DejaVuSans-2e" x="63.623047"/>
      <use xlink:href="#DejaVuSans-34" x="95.410156"/>
     </g>
    </g>
   </g>
   <g id="xtick_16">
    <g id="line2d_19">
     <path d="M 257.916617 110.364192 
L 261.566741 111.345617 
" style="fill: none; stroke: #000000; stroke-width: 0.8; stroke-linecap: square"/>
    </g>
    <g id="text_19">
     <!-- 0.6 -->
     <g transform="translate(269.897442 115.814326) scale(0.1 -0.1)">
      <use xlink:href="#DejaVuSans-30"/>
      <use xlink:href="#DejaVuSans-2e" x="63.623047"/>
      <use xlink:href="#DejaVuSans-36" x="95.410156"/>
     </g>
    </g>
   </g>
   <g id="xtick_17">
    <g id="line2d_20">
     <path d="M 258.888072 88.921197 
L 262.570518 89.884598 
" style="fill: none; stroke: #000000; stroke-width: 0.8; stroke-linecap: square"/>
    </g>
    <g id="text_20">
     <!-- 0.8 -->
     <g transform="translate(271.035582 94.410852) scale(0.1 -0.1)">
      <use xlink:href="#DejaVuSans-30"/>
      <use xlink:href="#DejaVuSans-2e" x="63.623047"/>
      <use xlink:href="#DejaVuSans-38" x="95.410156"/>
     </g>
    </g>
   </g>
   <g id="xtick_18">
    <g id="line2d_21">
     <path d="M 259.876217 67.109816 
L 263.591561 68.054427 
" style="fill: none; stroke: #000000; stroke-width: 0.8; stroke-linecap: square"/>
    </g>
    <g id="text_21">
     <!-- 1.0 -->
     <g transform="translate(272.193221 72.640671) scale(0.1 -0.1)">
      <use xlink:href="#DejaVuSans-31"/>
      <use xlink:href="#DejaVuSans-2e" x="63.623047"/>
      <use xlink:href="#DejaVuSans-30" x="95.410156"/>
     </g>
    </g>
   </g>
  </g>
  <g id="axes_1">
   <g id="line2d_22">
    <path d="M 176.878528 139.682019 
L 26.946555 96.735903 
" clip-path="url(#pb330274d64)" style="fill: none; stroke: #2e3d7c; stroke-width: 1.5; stroke-linecap: square"/>
   </g>
   <g id="line2d_23">
    <path d="M 176.878528 139.682019 
L 256.508423 68.000876 
" clip-path="url(#pb330274d64)" style="fill: none; stroke: #2e3d7c; stroke-width: 1.5; stroke-linecap: square"/>
   </g>
   <g id="line2d_24">
    <path d="M 176.878528 139.682019 
L 175.394594 251.491713 
" clip-path="url(#pb330274d64)" style="fill: none; stroke: #2e3d7c; stroke-width: 1.5; stroke-linecap: square"/>
   </g>
   <g id="line2d_25">
    <path d="M 26.946555 96.735903 
L 256.508423 68.000876 
" clip-path="url(#pb330274d64)" style="fill: none; stroke: #2e3d7c; stroke-width: 1.5; stroke-linecap: square"/>
   </g>
   <g id="line2d_26">
    <path d="M 26.946555 96.735903 
L 175.394594 251.491713 
" clip-path="url(#pb330274d64)" style="fill: none; stroke: #2e3d7c; stroke-width: 1.5; stroke-linecap: square"/>
   </g>
   <g id="line2d_27">
    <path d="M 256.508423 68.000876 
L 175.394594 251.491713 
" clip-path="url(#pb330274d64)" style="fill: none; stroke: #2e3d7c; stroke-width: 1.5; stroke-linecap: square"/>
   </g>
   <g id="line2d_28">
    <path d="M 31.940239 204.865201 
L 116.225578 134.131889 
" clip-path="url(#pb330274d64)" style="fill: none; stroke: #2e3d7c; stroke-width: 1.5; stroke-linecap: square"/>
   </g>
   <g id="line2d_29">
    <path d="M 31.940239 204.865201 
L 115.093838 31.964132 
" clip-path="url(#pb330274d64)" style="fill: none; stroke: #2e3d7c; stroke-width: 1.5; stroke-linecap: square"/>
   </g>
   <g id="line2d_30">
    <path d="M 31.940239 204.865201 
L 175.394594 251.491713 
" clip-path="url(#pb330274d64)" style="fill: none; stroke: #2e3d7c; stroke-width: 1.5; stroke-linecap: square"/>
   </g>
   <g id="line2d_31">
    <path d="M 116.225578 134.131889 
L 115.093838 31.964132 
" clip-path="url(#pb330274d64)" style="fill: none; stroke: #2e3d7c; stroke-width: 1.5; stroke-linecap: square"/>
   </g>
   <g id="line2d_32">
    <path d="M 116.225578 134.131889 
L 175.394594 251.491713 
" clip-path="url(#pb330274d64)" style="fill: none; stroke: #2e3d7c; stroke-width: 1.5; stroke-linecap: square"/>
   </g>
   <g id="line2d_33">
    <path d="M 115.093838 31.964132 
L 175.394594 251.491713 
" clip-path="url(#pb330274d64)" style="fill: none; stroke: #2e3d7c; stroke-width: 1.5; stroke-linecap: square"/>
   </g>
   <g id="line2d_34">
    <path d="M 115.093838 31.964132 
L 116.225578 134.131889 
" clip-path="url(#pb330274d64)" style="fill: none; stroke: #2e3d7c; stroke-width: 1.5; stroke-linecap: square"/>
   </g>
   <g id="line2d_35">
    <path d="M 115.093838 31.964132 
L 256.508423 68.000876 
" clip-path="url(#pb330274d64)" style="fill: none; stroke: #2e3d7c; stroke-width: 1.5; stroke-linecap: square"/>
   </g>
   <g id="line2d_36">
    <path d="M 115.093838 31.964132 
L 175.394594 251.491713 
" clip-path="url(#pb330274d64)" style="fill: none; stroke: #2e3d7c; stroke-width: 1.5; stroke-linecap: square"/>
   </g>
   <g id="line2d_37">
    <path d="M 116.225578 134.131889 
L 256.508423 68.000876 
" clip-path="url(#pb330274d64)" style="fill: none; stroke: #2e3d7c; stroke-width: 1.5; stroke-linecap: square"/>
   </g>
   <g id="line2d_38">
    <path d="M 116.225578 134.131889 
L 175.394594 251.491713 
" clip-path="url(#pb330274d64)" style="fill: none; stroke: #2e3d7c; stroke-width: 1.5; stroke-linecap: square"/>
   </g>
   <g id="line2d_39">
    <path d="M 256.508423 68.000876 
L 175.394594 251.491713 
" clip-path="url(#pb330274d64)" style="fill: none; stroke: #2e3d7c; stroke-width: 1.5; stroke-linecap: square"/>
   </g>
   <g id="line2d_40">
    <path d="M 31.940239 204.865201 
L 115.093838 31.964132 
" clip-path="url(#pb330274d64)" style="fill: none; stroke: #2e3d7c; stroke-width: 1.5; stroke-linecap: square"/>
   </g>
   <g id="line2d_41">
    <path d="M 31.940239 204.865201 
L 26.946555 96.735903 
" clip-path="url(#pb330274d64)" style="fill: none; stroke: #2e3d7c; stroke-width: 1.5; stroke-linecap: square"/>
   </g>
   <g id="line2d_42">
    <path d="M 31.940239 204.865201 
L 175.394594 251.491713 
" clip-path="url(#pb330274d64)" style="fill: none; stroke: #2e3d7c; stroke-width: 1.5; stroke-linecap: square"/>
   </g>
   <g id="line2d_43">
    <path d="M 115.093838 31.964132 
L 26.946555 96.735903 
" clip-path="url(#pb330274d64)" style="fill: none; stroke: #2e3d7c; stroke-width: 1.5; stroke-linecap: square"/>
   </g>
   <g id="line2d_44">
    <path d="M 115.093838 31.964132 
L 175.394594 251.491713 
" clip-path="url(#pb330274d64)" style="fill: none; stroke: #2e3d7c; stroke-width: 1.5; stroke-linecap: square"/>
   </g>
   <g id="line2d_45">
    <path d="M 26.946555 96.735903 
L 175.394594 251.491713 
" clip-path="url(#pb330274d64)" style="fill: none; stroke: #2e3d7c; stroke-width: 1.5; stroke-linecap: square"/>
   </g>
   <g id="line2d_46">
    <path d="M 26.946555 96.735903 
L 115.093838 31.964132 
" clip-path="url(#pb330274d64)" style="fill: none; stroke: #2e3d7c; stroke-width: 1.5; stroke-linecap: square"/>
   </g>
   <g id="line2d_47">
    <path d="M 26.946555 96.735903 
L 256.508423 68.000876 
" clip-path="url(#pb330274d64)" style="fill: none; stroke: #2e3d7c; stroke-width: 1.5; stroke-linecap: square"/>
   </g>
   <g id="line2d_48">
    <path d="M 26.946555 96.735903 
L 175.394594 251.491713 
" clip-path="url(#pb330274d64)" style="fill: none; stroke: #2e3d7c; stroke-width: 1.5; stroke-linecap: square"/>
   </g>
   <g id="line2d_49">
    <path d="M 115.093838 31.964132 
L 256.508423 68.000876 
" clip-path="url(#pb330274d64)" style="fill: none; stroke: #2e3d7c; stroke-width: 1.5; stroke-linecap: square"/>
   </g>
   <g id="line2d_50">
    <path d="M 115.093838 31.964132 
L 175.394594 251.491713 
" clip-path="url(#pb330274d64)" style="fill: none; stroke: #2e3d7c; stroke-width: 1.5; stroke-linecap: square"/>
   </g>
   <g id="line2d_51">
    <path d="M 256.508423 68.000876 
L 175.394594 251.491713 
" clip-path="url(#pb330274d64)" style="fill: none; stroke: #2e3d7c; stroke-width: 1.5; stroke-linecap: square"/>
   </g>
   <g id="text_22">
    <!-- 0 -->
    <g style="fill: #0000ff" transform="translate(156.414742 140.859932) scale(0.1 -0.1)">
     <use xlink:href="#DejaVuSans-30"/>
    </g>
   </g>
   <g id="text_23">
    <!-- 1 -->
    <g style="fill: #0000ff" transform="translate(105.881762 155.468342) scale(0.1 -0.1)">
     <use xlink:href="#DejaVuSans-31"/>
    </g>
   </g>
   <g id="text_24">
    <!-- 2 -->
    <g style="fill: #0000ff" transform="translate(160.788945 121.996492) scale(0.1 -0.1)">
     <use xlink:href="#DejaVuSans-32"/>
    </g>
   </g>
   <g id="text_25">
    <!-- 3 -->
    <g style="fill: #0000ff" transform="translate(84.016321 147.009536) scale(0.1 -0.1)">
     <defs>
      <path id="DejaVuSans-33" d="M 2597 2516 
Q 3050 2419 3304 2112 
Q 3559 1806 3559 1356 
Q 3559 666 3084 287 
Q 2609 -91 1734 -91 
Q 1441 -91 1130 -33 
Q 819 25 488 141 
L 488 750 
Q 750 597 1062 519 
Q 1375 441 1716 441 
Q 2309 441 2620 675 
Q 2931 909 2931 1356 
Q 2931 1769 2642 2001 
Q 2353 2234 1838 2234 
L 1294 2234 
L 1294 2753 
L 1863 2753 
Q 2328 2753 2575 2939 
Q 2822 3125 2822 3475 
Q 2822 3834 2567 4026 
Q 2313 4219 1838 4219 
Q 1578 4219 1281 4162 
Q 984 4106 628 3988 
L 628 4550 
Q 988 4650 1302 4700 
Q 1616 4750 1894 4750 
Q 2613 4750 3031 4423 
Q 3450 4097 3450 3541 
Q 3450 3153 3228 2886 
Q 3006 2619 2597 2516 
z
" transform="scale(0.015625)"/>
     </defs>
     <use xlink:href="#DejaVuSans-33"/>
    </g>
   </g>
   <g id="text_26">
    <!-- 4 -->
    <g style="fill: #0000ff" transform="translate(140.670858 112.43598) scale(0.1 -0.1)">
     <use xlink:href="#DejaVuSans-34"/>
    </g>
   </g>
   <g id="text_27">
    <g id="patch_6">
     <path d="M 175.394594 259.330776 
C 177.473537 259.330776 179.467613 258.504803 180.937648 257.034768 
C 182.407683 255.564732 183.233656 253.570657 183.233656 251.491713 
C 183.233656 249.41277 182.407683 247.418694 180.937648 245.948659 
C 179.467613 244.478624 177.473537 243.652651 175.394594 243.652651 
C 173.31565 243.652651 171.321575 244.478624 169.85154 245.948659 
C 168.381504 247.418694 167.555531 249.41277 167.555531 251.491713 
C 167.555531 253.570657 168.381504 255.564732 169.85154 257.034768 
C 171.321575 258.504803 173.31565 259.330776 175.394594 259.330776 
z
" style="fill: #ffffff; opacity: 0.8; stroke: #000000; stroke-linejoin: miter"/>
    </g>
    <!-- 0 -->
    <g style="fill: #ff0000" transform="translate(172.213344 254.251088) scale(0.1 -0.1)">
     <use xlink:href="#DejaVuSans-30"/>
    </g>
   </g>
   <g id="text_28">
    <g id="patch_7">
     <path d="M 31.940239 212.704263 
C 34.019183 212.704263 36.013258 211.87829 37.483293 210.408255 
C 38.953329 208.93822 39.779302 206.944144 39.779302 204.865201 
C 39.779302 202.786257 38.953329 200.792182 37.483293 199.322147 
C 36.013258 197.852111 34.019183 197.026138 31.940239 197.026138 
C 29.861295 197.026138 27.86722 197.852111 26.397185 199.322147 
C 24.92715 200.792182 24.101177 202.786257 24.101177 204.865201 
C 24.101177 206.944144 24.92715 208.93822 26.397185 210.408255 
C 27.86722 211.87829 29.861295 212.704263 31.940239 212.704263 
z
" style="fill: #ffffff; opacity: 0.8; stroke: #000000; stroke-linejoin: miter"/>
    </g>
    <!-- 1 -->
    <g style="fill: #ff0000" transform="translate(28.758989 207.624576) scale(0.1 -0.1)">
     <use xlink:href="#DejaVuSans-31"/>
    </g>
   </g>
   <g id="text_29">
    <g id="patch_8">
     <path d="M 116.225578 141.970951 
C 118.304521 141.970951 120.298597 141.144978 121.768632 139.674943 
C 123.238667 138.204908 124.06464 136.210833 124.06464 134.131889 
C 124.06464 132.052945 123.238667 130.05887 121.768632 128.588835 
C 120.298597 127.118799 118.304521 126.292826 116.225578 126.292826 
C 114.146634 126.292826 112.152558 127.118799 110.682523 128.588835 
C 109.212488 130.05887 108.386515 132.052945 108.386515 134.131889 
C 108.386515 136.210833 109.212488 138.204908 110.682523 139.674943 
C 112.152558 141.144978 114.146634 141.970951 116.225578 141.970951 
z
" style="fill: #ffffff; opacity: 0.8; stroke: #000000; stroke-linejoin: miter"/>
    </g>
    <!-- 2 -->
    <g style="fill: #ff0000" transform="translate(113.044328 136.891264) scale(0.1 -0.1)">
     <use xlink:href="#DejaVuSans-32"/>
    </g>
   </g>
   <g id="text_30">
    <g id="patch_9">
     <path d="M 26.946555 104.574966 
C 29.025499 104.574966 31.019574 103.748993 32.48961 102.278957 
C 33.959645 100.808922 34.785618 98.814847 34.785618 96.735903 
C 34.785618 94.656959 33.959645 92.662884 32.48961 91.192849 
C 31.019574 89.722814 29.025499 88.896841 26.946555 88.896841 
C 24.867612 88.896841 22.873536 89.722814 21.403501 91.192849 
C 19.933466 92.662884 19.107493 94.656959 19.107493 96.735903 
C 19.107493 98.814847 19.933466 100.808922 21.403501 102.278957 
C 22.873536 103.748993 24.867612 104.574966 26.946555 104.574966 
z
" style="fill: #ffffff; opacity: 0.8; stroke: #000000; stroke-linejoin: miter"/>
    </g>
    <!-- 3 -->
    <g style="fill: #ff0000" transform="translate(23.765305 99.495278) scale(0.1 -0.1)">
     <use xlink:href="#DejaVuSans-33"/>
    </g>
   </g>
   <g id="text_31">
    <g id="patch_10">
     <path d="M 176.878528 147.521082 
C 178.957472 147.521082 180.951547 146.695109 182.421582 145.225073 
C 183.891618 143.755038 184.717591 141.760963 184.717591 139.682019 
C 184.717591 137.603075 183.891618 135.609 182.421582 134.138965 
C 180.951547 132.66893 178.957472 131.842957 176.878528 131.842957 
C 174.799585 131.842957 172.805509 132.66893 171.335474 134.138965 
C 169.865439 135.609 169.039466 137.603075 169.039466 139.682019 
C 169.039466 141.760963 169.865439 143.755038 171.335474 145.225073 
C 172.805509 146.695109 174.799585 147.521082 176.878528 147.521082 
z
" style="fill: #ffffff; opacity: 0.8; stroke: #000000; stroke-linejoin: miter"/>
    </g>
    <!-- 4 -->
    <g style="fill: #ff0000" transform="translate(173.697278 142.441394) scale(0.1 -0.1)">
     <use xlink:href="#DejaVuSans-34"/>
    </g>
   </g>
   <g id="text_32">
    <g id="patch_11">
     <path d="M 256.508423 75.839939 
C 258.587367 75.839939 260.581442 75.013966 262.051477 73.54393 
C 263.521513 72.073895 264.347486 70.07982 264.347486 68.000876 
C 264.347486 65.921932 263.521513 63.927857 262.051477 62.457822 
C 260.581442 60.987787 258.587367 60.161814 256.508423 60.161814 
C 254.42948 60.161814 252.435404 60.987787 250.965369 62.457822 
C 249.495334 63.927857 248.669361 65.921932 248.669361 68.000876 
C 248.669361 70.07982 249.495334 72.073895 250.965369 73.54393 
C 252.435404 75.013966 254.42948 75.839939 256.508423 75.839939 
z
" style="fill: #ffffff; opacity: 0.8; stroke: #000000; stroke-linejoin: miter"/>
    </g>
    <!-- 5 -->
    <g style="fill: #ff0000" transform="translate(253.327173 70.760251) scale(0.1 -0.1)">
     <defs>
      <path id="DejaVuSans-35" d="M 691 4666 
L 3169 4666 
L 3169 4134 
L 1269 4134 
L 1269 2991 
Q 1406 3038 1543 3061 
Q 1681 3084 1819 3084 
Q 2600 3084 3056 2656 
Q 3513 2228 3513 1497 
Q 3513 744 3044 326 
Q 2575 -91 1722 -91 
Q 1428 -91 1123 -41 
Q 819 9 494 109 
L 494 744 
Q 775 591 1075 516 
Q 1375 441 1709 441 
Q 2250 441 2565 725 
Q 2881 1009 2881 1497 
Q 2881 1984 2565 2268 
Q 2250 2553 1709 2553 
Q 1456 2553 1204 2497 
Q 953 2441 691 2322 
L 691 4666 
z
" transform="scale(0.015625)"/>
     </defs>
     <use xlink:href="#DejaVuSans-35"/>
    </g>
   </g>
   <g id="text_33">
    <g id="patch_12">
     <path d="M 115.093838 39.803194 
C 117.172782 39.803194 119.166857 38.977221 120.636892 37.507186 
C 122.106928 36.037151 122.932901 34.043076 122.932901 31.964132 
C 122.932901 29.885188 122.106928 27.891113 120.636892 26.421078 
C 119.166857 24.951043 117.172782 24.125069 115.093838 24.125069 
C 113.014895 24.125069 111.020819 24.951043 109.550784 26.421078 
C 108.080749 27.891113 107.254776 29.885188 107.254776 31.964132 
C 107.254776 34.043076 108.080749 36.037151 109.550784 37.507186 
C 111.020819 38.977221 113.014895 39.803194 115.093838 39.803194 
z
" style="fill: #ffffff; opacity: 0.8; stroke: #000000; stroke-linejoin: miter"/>
    </g>
    <!-- 6 -->
    <g style="fill: #ff0000" transform="translate(111.912588 34.723507) scale(0.1 -0.1)">
     <use xlink:href="#DejaVuSans-36"/>
    </g>
   </g>
   <g id="text_34">
    <!-- [0] -->
    <g transform="translate(160.948355 141.631804) scale(0.1 -0.1)">
     <defs>
      <path id="DejaVuSans-5b" d="M 550 4863 
L 1875 4863 
L 1875 4416 
L 1125 4416 
L 1125 -397 
L 1875 -397 
L 1875 -844 
L 550 -844 
L 550 4863 
z
" transform="scale(0.015625)"/>
      <path id="DejaVuSans-5d" d="M 1947 4863 
L 1947 -844 
L 622 -844 
L 622 -397 
L 1369 -397 
L 1369 4416 
L 622 4416 
L 622 4863 
L 1947 4863 
z
" transform="scale(0.015625)"/>
     </defs>
     <use xlink:href="#DejaVuSans-5b"/>
     <use xlink:href="#DejaVuSans-30" x="39.013672"/>
     <use xlink:href="#DejaVuSans-5d" x="102.636719"/>
    </g>
   </g>
   <g id="text_35">
    <!-- [0] -->
    <g transform="translate(63.795046 181.292022) scale(0.1 -0.1)">
     <use xlink:href="#DejaVuSans-5b"/>
     <use xlink:href="#DejaVuSans-30" x="39.013672"/>
     <use xlink:href="#DejaVuSans-5d" x="102.636719"/>
    </g>
   </g>
   <g id="text_36">
    <!-- [0] -->
    <g transform="translate(132.156746 77.837789) scale(0.1 -0.1)">
     <use xlink:href="#DejaVuSans-5b"/>
     <use xlink:href="#DejaVuSans-30" x="39.013672"/>
     <use xlink:href="#DejaVuSans-5d" x="102.636719"/>
    </g>
   </g>
   <g id="text_37">
    <!-- [0] -->
    <g transform="translate(52.314693 177.505075) scale(0.1 -0.1)">
     <use xlink:href="#DejaVuSans-5b"/>
     <use xlink:href="#DejaVuSans-30" x="39.013672"/>
     <use xlink:href="#DejaVuSans-5d" x="102.636719"/>
    </g>
   </g>
   <g id="text_38">
    <!-- [0] -->
    <g transform="translate(79.18077 106.061296) scale(0.1 -0.1)">
     <use xlink:href="#DejaVuSans-5b"/>
     <use xlink:href="#DejaVuSans-30" x="39.013672"/>
     <use xlink:href="#DejaVuSans-5d" x="102.636719"/>
    </g>
   </g>
  </g>
 </g>
 <defs>
  <clipPath id="pb330274d64">
   <rect x="7.2" y="7.2" width="266.112" height="266.112"/>
  </clipPath>
 </defs>
</svg>
